<svg width="433" height="100" fill="none" xmlns="http://www.w3.org/2000/svg"><path d="M197 0v100" stroke="#fff"/><g clip-path="url(#clip0_2_2)"><path d="M98.505 97H0V16.7L16.11 1h82.395v10.742h-4.988V5.861H18.171L4.988 18.709v73.43h88.53V86.63h4.987V97zm54.614-31.87h-6.833v6.659h6.833v-6.66z" fill="#00FFB0"/><path d="M114.565 15.971H76.809v8.102h14.73v33.166h8.313V24.073h14.713V15.97zm-42.744.243H63.51v34.528H49.56l-4.356-4.23V16.215h-8.313v33.653l9.227 8.976h25.687V51.52h.016V16.214zm78.621 20.091l3.558-3.03v-8.311l-9.21-8.993h-23.558v8.102h20.116l4.339 4.228v4.391h-10.141v8.102h10.141v4.39l-4.339 4.23h-20.116v8.1h23.558l9.21-8.976v-9.203l-3.558-3.03zM42.71 71.789h-1.363V66.96l-2.793 4.829h-1.446v-6.627h1.363v4.828l2.793-4.828h1.446v6.627zm1.979 0v-6.627h1.38v2.608h2.66v-2.608h1.38v6.627h-1.38v-2.803h-2.66v2.803h-1.38zm7.381-1.621v-3.402l1.014-.988h5.055l1.014.988v3.402l-1.014.989h-5.055l-1.014-.989zm1.347-3.289v3.176h4.39v-3.176h-4.39zm2.843 4.91h-1.297v-6.627h1.297v6.627zm4.838-1.021v-4.585l1.047-1.021h3.541l1.048 1.02v4.586l-1.047 1.02h-3.542l-1.047-1.02zm1.413-4.44v4.278h2.793v-4.278h-2.793zm11.439-.145v3.16l-1.048 1.02h-2.826v1.426h-1.38v-6.627h4.206l1.047 1.02zm-3.874 3.078h2.493v-3.014h-2.493v3.014zm5.669 2.528v-6.627h1.679l1.613 3.062 1.612-3.062h1.68v6.627h-1.347v-4.942l-1.596 2.997h-.665l-1.596-2.997v4.942h-1.38zm8.179 0l1.58-6.627h2.91l1.579 6.627h-1.447l-.332-1.523h-2.51l-.333 1.523h-1.447zm1.995-2.528h2.095l-.681-3.014H86.6l-.681 3.014zm11.006-4.099v5.46h.665v2.495h-1.147V71.79h-4.838v-6.627h1.38v5.46h2.544v-5.46h1.396zm7.848 6.627h-1.364V66.96l-2.793 4.829H99.17v-6.627h1.363v4.828l2.793-4.828h1.447v6.627zm1.961-1.021v-4.585l1.048-1.021h3.541l1.047 1.02v4.586l-1.047 1.02h-3.541l-1.048-1.02zm1.413-4.44v4.278h2.794v-4.278h-2.794zm6.185 5.461v-6.627h1.38v2.608h2.66v-2.608h1.38v6.627h-1.38v-2.803h-2.66v2.803h-1.38zm7.415 0v-6.627h1.38v2.608h2.66v-2.608h1.38v6.627h-1.38v-2.803h-2.66v2.803h-1.38zm12.801-4.197v3.16l-1.047 1.02h-4.356v-6.626h1.38v1.426h2.976l1.047 1.02zm-1.379.081h-2.644v3.014h2.644v-3.014zm2.194 4.116v-6.627h1.38v6.627h-1.38zm3.375 0v-6.627h4.738v1.134h-3.358v1.555h2.876v1.102h-2.876v1.701h3.458v1.135h-4.838zM38.67 83.147v-5.46h-1.878v-1.183h5.137v1.182H40.05v5.46h-1.38zm4.938 0V76.52h4.738v1.134h-3.358v1.556h2.876v1.101h-2.876v1.702h3.458v1.134h-4.838zm6.218 0l1.596-3.5-1.446-3.127h1.48l1.113 2.609h.698l1.114-2.609h1.48l-1.446 3.127 1.596 3.5h-1.497l-1.163-2.803h-.848l-1.164 2.803h-1.513zm7.781 0V76.52h1.38v2.609h2.66V76.52h1.38v6.627h-1.38v-2.803h-2.66v2.803h-1.38zm7.381-1.021v-4.585l1.048-1.021h3.54l1.048 1.02v4.586l-1.047 1.02h-3.541l-1.048-1.02zm1.413-4.423v4.277h2.793v-4.277h-2.793zm11.705-1.183v6.627h-1.38v-5.444H74.88l-1.213 5.444H72.22l1.546-6.627h4.34zm1.961 5.606v-4.585l1.048-1.021h3.54l1.048 1.02v4.586l-1.047 1.02h-3.541l-1.048-1.02zm1.43-4.423v4.277h2.793v-4.277h-2.793zm6.185 5.444V76.52h4.356v1.215h-2.976v5.412h-1.38zm11.521 0H97.84v-4.829l-2.793 4.829H93.6V76.52h1.364v4.828l2.793-4.828h1.446v6.627zm7.581 0h-1.363v-4.829l-2.793 4.829h-1.447V76.52h1.364v4.828l2.793-4.828h1.446v6.627zm9.66 0h-4.423v-1.134h4.024V80.31h-3.093v-1.1h2.893v-1.556h-3.691V76.52h4.107l1.014.988v1.734l-.599.438.782.599v1.88l-1.014.988zm2.427 0l1.579-6.627h2.91l1.579 6.627h-1.446l-.35-1.523h-2.51l-.332 1.523h-1.447.017zm1.995-2.528h2.095l-.682-3.013h-.732l-.681 3.013zm10.989-3.111v1.685l-.532.438.732.6v1.928l-1.014.988h-4.473V76.52h4.273l1.014.988zm-3.907 1.734h2.511v-1.62h-2.511v1.62zm0 2.82h2.677V80.23h-2.677v1.831zm7.465 1.085v-5.46h-1.879v-1.183h5.138v1.182h-1.879v5.46h-1.38zm10.175-5.607v3.16l-1.048 1.021h-2.826v1.426h-1.38V76.52h4.206l1.048 1.02zm-3.874 3.095h2.494v-3.013h-2.494v3.013zm5.287 2.512l1.579-6.627h2.91l1.579 6.627h-1.446l-.35-1.523h-2.51l-.332 1.523h-1.447.017zm1.995-2.528h2.095l-.682-3.013h-.732l-.681 3.013z" fill="#fff"/></g><g clip-path="url(#clip1_2_2)"><path d="M255.573 50.985c-9.227 0-15.573-7.714-15.573-16.57C240 23.817 249.227 16 259.433 16c2.427 0 8.232.307 8.232 3.777a3.867 3.867 0 01-1.14 2.386 3.842 3.842 0 01-2.413 1.098c-2.646 0-5.366-4.919-9.153-4.919-6.039 0-8.92 7.041-8.92 12.18 0 9.763 6.653 15.97 14.125 15.97a12.436 12.436 0 007.779-2.943l.907 1.127a17.763 17.763 0 01-5.966 4.582 17.665 17.665 0 01-7.326 1.698m42.551-30.857v-.762L307.102 16l.833.293-.599 5.533c4.313-3.162 8.466-5.826 13.291-5.826 9.066 0 9.52 7.495 9.52 11.96v13.48c0 6.207.307 6.822 5.892 7.641v1.142h-17.62v-1.142c5.586-.834 5.82-1.742 5.893-7.64v-8.696c0-5.299.22-12.794-8.992-12.794a10.62 10.62 0 00-4.197.82 10.274 10.274 0 00-3.509 2.43v18.254c0 6.206.307 6.821 5.892 7.641v1.142h-17.605v-1.142c5.586-.834 5.82-1.742 5.893-7.641V26.993c0-3.176.073-4.157-3.7-6.894m57.071 5.006l-14.52.615c.834-3.777 3.407-8.037 7.721-8.037 3.992 0 6.127 3.938 6.799 7.422zm-15.031 5.826l.307-3.777h21.919a10.97 10.97 0 00-.849-4.42 10.939 10.939 0 00-2.544-3.704 11.01 11.01 0 00-3.816-2.371 11.203 11.203 0 00-4.445-.644c-10.207 0-17.006 8.402-17.006 18.18a16.336 16.336 0 00.994 6.324 16.008 16.008 0 003.378 5.43 16.045 16.045 0 0011.478 5.036 16.42 16.42 0 008.101-2.561 16.804 16.804 0 005.805-6.221l-1.126-.835a10.594 10.594 0 01-3.845 3.528 10.583 10.583 0 01-5.074 1.244 13.523 13.523 0 01-5.513-1.23 13.55 13.55 0 01-4.533-3.38 13.42 13.42 0 01-2.749-4.949 13.683 13.683 0 01-.497-5.65" fill="#fff"/><path d="M375.944 50.985L365.065 23.95c-1.36-3.25-2.194-5.826-6.273-6.06v-1.13h15.953v1.142c-5.586.161-4.606 2.576-3.246 6.148l7.252 18.547 7.107-16.805c-2.34-6.06-2.413-7.202-6.873-7.875V16.79h16.172v1.127c-5.673.22-4.913 2.503-3.991 4.991l7.413 19.689c3.027-6.748 8.32-18.4 8.32-21.958 0-2.503-2.339-2.503-4.24-2.722V16.79h12.765v1.127c-4.314.307-5.44 3.337-7.019 6.748L396.605 51h-1.053l-8.992-23.011L377.113 51h-1.14l-.029-.015z" fill="#fff"/><path d="M429.374 25.559c-1.053-3.484-2.705-7.73-7.019-7.73a4.928 4.928 0 00-2.003.381 5.09 5.09 0 00-1.682 1.157 4.85 4.85 0 00-1.053 1.742 5.241 5.241 0 00-.263 2.02c0 7.802 15.646 7.568 15.646 17.332 0 6.748-6.419 10.524-12.546 10.524a15.68 15.68 0 01-9.212-2.796l-.6-8.402 1.741-.307c1.067 4.625 3.626 9.544 8.992 9.544a5.73 5.73 0 002.281-.41 5.428 5.428 0 001.93-1.303 5.729 5.729 0 001.243-1.961 5.605 5.605 0 00.351-2.299c0-8.636-15.646-6.894-15.646-17.727 0-5.899 5.528-9.324 10.894-9.324 2.983-.03 5.907.849 8.393 2.503l.22 6.734-1.653.293-.014.029z" fill="#fff"/><path fill-rule="evenodd" clip-rule="evenodd" d="M280.942 32.102a4.383 4.383 0 004.387-4.391 4.383 4.383 0 00-4.387-4.392 4.383 4.383 0 00-4.386 4.392 4.383 4.383 0 004.386 4.391zm2.194 11.71c6.053 0 10.967-4.918 10.967-10.978s-4.914-10.979-10.967-10.979c-6.054 0-10.967 4.919-10.967 10.979s4.913 10.979 10.967 10.979z" fill="#00FFB0"/></g><path d="M430.69 67.252c-.081.153-.198.23-.351.23-.116 0-.269-.082-.458-.243a4.73 4.73 0 00-.741-.553 5.598 5.598 0 00-1.186-.566c-.467-.17-1.046-.255-1.738-.255-.691 0-1.302.098-1.832.296a3.89 3.89 0 00-1.32.808c-.351.342-.62.737-.809 1.186-.18.45-.269.92-.269 1.415 0 .647.134 1.18.404 1.603.278.422.642.782 1.091 1.078a7.28 7.28 0 001.523.754c.575.198 1.163.396 1.765.593.602.198 1.185.418 1.751.66a6.13 6.13 0 011.536.89c.449.36.809.804 1.078 1.334.279.52.418 1.172.418 1.953 0 .8-.139 1.554-.418 2.264a5.192 5.192 0 01-1.185 1.832 5.68 5.68 0 01-1.914 1.24c-.754.296-1.617.445-2.587.445-1.257 0-2.34-.22-3.247-.66a7.75 7.75 0 01-2.385-1.833l.378-.593c.107-.135.233-.202.377-.202.081 0 .184.054.31.162.126.108.278.242.458.404.18.153.395.323.647.512.251.18.543.35.875.512.333.153.715.283 1.146.39.431.108.92.162 1.468.162.755 0 1.429-.112 2.021-.336a4.43 4.43 0 001.496-.944c.413-.395.728-.862.943-1.4a4.732 4.732 0 00.323-1.752c0-.674-.139-1.227-.417-1.658a3.386 3.386 0 00-1.078-1.091 6.766 6.766 0 00-1.536-.741c-.566-.198-1.15-.39-1.752-.58-.601-.188-1.19-.4-1.765-.633a6.208 6.208 0 01-1.522-.89 4.283 4.283 0 01-1.092-1.36c-.269-.548-.404-1.23-.404-2.048 0-.638.121-1.253.364-1.846a4.515 4.515 0 011.064-1.563 5.093 5.093 0 011.725-1.091c.692-.278 1.478-.418 2.358-.418.988 0 1.873.157 2.654.472a6.358 6.358 0 012.156 1.441l-.323.62zm-13.712-2.317v1.145H406.94v7.707h8.354v1.118h-8.354v7.95h10.038V84h-11.425V64.935h11.425zm-16.522 15.858c.09 0 .166.032.229.095l.539.579a9.203 9.203 0 01-1.293 1.145c-.467.333-.979.62-1.536.863a8.8 8.8 0 01-1.819.538c-.656.135-1.379.203-2.169.203-1.321 0-2.533-.23-3.638-.688a8.274 8.274 0 01-2.83-1.967c-.781-.853-1.392-1.882-1.832-3.085-.44-1.204-.66-2.542-.66-4.015 0-1.447.224-2.767.673-3.962.458-1.194 1.096-2.218 1.914-3.072a8.492 8.492 0 012.95-1.994c1.15-.476 2.417-.714 3.8-.714.692 0 1.325.054 1.9.162a7.905 7.905 0 011.603.445c.503.188.975.426 1.415.714.44.287.871.62 1.293.997l-.417.606c-.072.108-.185.162-.337.162-.081 0-.184-.045-.31-.135a9.534 9.534 0 00-.485-.35 6.808 6.808 0 00-.701-.458 4.886 4.886 0 00-.97-.459 7.413 7.413 0 00-1.307-.35 8.634 8.634 0 00-1.684-.148c-1.159 0-2.223.202-3.193.606a7.034 7.034 0 00-2.506 1.711c-.701.737-1.249 1.635-1.644 2.695-.386 1.051-.58 2.232-.58 3.544 0 1.347.194 2.55.58 3.61.386 1.06.92 1.959 1.603 2.695a7.095 7.095 0 002.412 1.684c.934.387 1.945.58 3.031.58.683 0 1.289-.045 1.819-.135a7.144 7.144 0 001.482-.404c.45-.18.867-.4 1.254-.66a9.45 9.45 0 001.145-.916.71.71 0 01.121-.081.281.281 0 01.148-.04zm-33.545-15.858a.67.67 0 01.296.054.567.567 0 01.229.202l12.342 16.519a7.84 7.84 0 01-.04-.782V64.935h1.212V84h-.66a.58.58 0 01-.498-.27l-12.396-16.545c.027.27.04.525.04.768V84h-1.199V64.935h.674zm-5.169 0v1.145h-10.038v7.707h8.354v1.118h-8.354v7.95h10.038V84h-11.426V64.935h11.426zm-26.647 10.442V84h-1.375V64.935h4.864c2.201 0 3.845.427 4.932 1.28 1.087.844 1.63 2.088 1.63 3.732a5.13 5.13 0 01-.377 1.994 4.712 4.712 0 01-1.092 1.59 5.875 5.875 0 01-1.697 1.118c-.665.288-1.415.476-2.25.566.215.135.408.315.579.54L346.871 84h-1.199a.836.836 0 01-.378-.08 1.007 1.007 0 01-.296-.27l-6.104-7.734a1.334 1.334 0 00-.498-.418c-.171-.08-.44-.121-.809-.121h-2.492zm0-1.024h3.314c.845 0 1.599-.099 2.264-.296.673-.207 1.239-.5 1.697-.876a3.72 3.72 0 001.065-1.361c.242-.53.364-1.127.364-1.792 0-1.357-.445-2.363-1.334-3.018-.889-.656-2.183-.984-3.881-.984h-3.489v8.327zm-6.274-9.418v1.145h-10.038v7.707h8.354v1.118h-8.354v7.95h10.038V84h-11.426V64.935h11.426zm-15.421 0v1.145h-10.038v8.017h8.691v1.145h-8.691V84h-1.388V64.935H313.4zm-31.12 0c.125 0 .224.018.296.054a.567.567 0 01.229.202l12.342 16.519a7.848 7.848 0 01-.041-.782V64.935h1.213V84h-.66a.582.582 0 01-.499-.27l-12.395-16.545c.027.27.04.525.04.768V84h-1.199V64.935h.674zm-5.17 9.525c0 1.474-.22 2.812-.66 4.016-.441 1.195-1.06 2.219-1.86 3.072a8.338 8.338 0 01-2.87 1.967c-1.114.458-2.349.687-3.705.687-1.338 0-2.564-.229-3.678-.687a8.338 8.338 0 01-2.87-1.967c-.8-.853-1.424-1.877-1.873-3.072-.44-1.204-.66-2.542-.66-4.015 0-1.465.22-2.794.66-3.989.449-1.203 1.073-2.227 1.873-3.072a8.252 8.252 0 012.87-1.98c1.114-.467 2.34-.7 3.678-.7 1.356 0 2.591.233 3.705.7a8.1 8.1 0 012.87 1.967c.8.853 1.419 1.882 1.86 3.085.44 1.195.66 2.525.66 3.989zm-1.428 0c0-1.329-.185-2.523-.553-3.583-.368-1.06-.889-1.959-1.563-2.695a6.537 6.537 0 00-2.412-1.684c-.943-.395-1.989-.593-3.139-.593-1.132 0-2.169.198-3.112.593a6.818 6.818 0 00-2.426 1.684c-.673.736-1.199 1.635-1.576 2.695-.368 1.06-.552 2.254-.552 3.584 0 1.338.184 2.537.552 3.597.377 1.051.903 1.945 1.576 2.681a6.82 6.82 0 002.426 1.685c.943.386 1.98.579 3.112.579 1.15 0 2.196-.193 3.139-.58a6.54 6.54 0 002.412-1.684c.674-.736 1.195-1.63 1.563-2.68.368-1.06.553-2.26.553-3.598zm-20.672 6.333c.089 0 .166.032.229.095l.539.579a9.268 9.268 0 01-1.294 1.145c-.467.333-.979.62-1.536.863a8.8 8.8 0 01-1.819.538c-.656.135-1.379.203-2.169.203-1.32 0-2.533-.23-3.638-.688a8.26 8.26 0 01-2.829-1.967c-.782-.853-1.393-1.882-1.833-3.085-.44-1.204-.66-2.542-.66-4.015 0-1.447.225-2.767.674-3.962.458-1.194 1.096-2.218 1.913-3.072a8.486 8.486 0 012.951-1.994c1.149-.476 2.416-.714 3.799-.714.692 0 1.325.054 1.9.162a7.905 7.905 0 011.603.445c.503.188.975.426 1.415.714.44.287.871.62 1.294.997l-.418.606c-.072.108-.184.162-.337.162-.081 0-.184-.045-.31-.135a9.102 9.102 0 00-.485-.35 6.808 6.808 0 00-.701-.458 4.859 4.859 0 00-.97-.459 7.413 7.413 0 00-1.307-.35 8.634 8.634 0 00-1.684-.148c-1.159 0-2.223.202-3.193.606a7.043 7.043 0 00-2.506 1.711c-.701.737-1.249 1.635-1.644 2.695-.386 1.051-.579 2.232-.579 3.544 0 1.347.193 2.55.579 3.61.386 1.06.921 1.959 1.603 2.695a7.095 7.095 0 002.412 1.684c.934.387 1.945.58 3.032.58.682 0 1.289-.045 1.819-.135a7.144 7.144 0 001.482-.404c.449-.18.867-.4 1.253-.66a9.45 9.45 0 001.145-.916.71.71 0 01.121-.081.285.285 0 01.149-.04z" fill="#fff"/><defs><clipPath id="clip0_2_2"><path fill="#fff" transform="translate(0 1)" d="M0 0h154v96H0z"/></clipPath><clipPath id="clip1_2_2"><path fill="#fff" transform="translate(240 16)" d="M0 0h193v35H0z"/></clipPath></defs></svg>